<?xml version="1.0" encoding="utf-8"?>
<!-- Generator: Adobe Illustrator 23.0.1, SVG Export Plug-In . SVG Version: 6.00 Build 0)  -->
<svg version="1.1" id="Signature" xmlns="http://www.w3.org/2000/svg" xmlns:xlink="http://www.w3.org/1999/xlink" x="0px" y="0px"
	 viewBox="0 0 248.445 94.659" style="enable-background:new 0 0 248.445 94.659;" xml:space="preserve">
<style type="text/css">
	.st0{fill-rule:evenodd;clip-rule:evenodd;fill:none;}
	.st1{fill-rule:evenodd;clip-rule:evenodd;}
	.st2{fill-rule:evenodd;clip-rule:evenodd;fill:#095797;}
	.st3{fill-rule:evenodd;clip-rule:evenodd;fill:#FFFFFF;}
</style>
<g>
	<g>
		<rect class="st0" width="248.445" height="94.659"/>
	</g>
</g>
<g>
	<g>
		<g>
			<path d="M102.981,70.616V57.507h-0.1c-0.466,0.426-2.188,0.465-2.92,0.465h-1.268v0.105c1.465,0.896,1.264,2.225,1.264,3.877
				l0.004,5.547c0,2.775-2.727,4.723-4.922,4.723c-2.893,0-4.096-2.057-4.096-5.369v-9.348h-0.098
				c-0.467,0.426-2.201,0.465-2.933,0.465h-1.255v0.105c1.465,0.896,1.264,2.225,1.264,3.877v5.529c0,5.063,2.195,7.469,6.121,7.469
				c2.327,0,4.719-0.826,5.918-2.803v2.395h4.284v-0.109C102.784,73.608,102.981,72.272,102.981,70.616z"/>
			<path d="M109.626,63.606c0.401-2.254,2.064-3.684,4.295-3.684c2.396,0,3.926,1.18,4.291,3.684H109.626z M121.708,65.694
				c0.132-4.627-2.963-8.121-7.488-8.121c-4.959,0-8.318,3.6-8.318,8.592c0,5.027,3.891,8.857,9.549,8.857
				c1.564,0,3.162-0.25,4.594-0.891l1.664-3.375h-0.1c-1.531,1.301-3.46,1.92-5.459,1.92c-3.76,0-6.588-2.57-6.654-6.982H121.708z"
				/>
			<path d="M124.349,49.888c0.797,0,2.422-0.049,2.914-0.533h0.1v22.707c0.895,0.25,1.818,0.43,2.742,0.43
				c3.639,0,5.721-2.543,5.721-6.09c0-3.473-1.621-6.16-4.959-6.16c-1.059,0-1.885,0.285-2.777,0.789l1.787-3.059
				c0.758-0.289,1.553-0.398,2.346-0.398c3.771,0,6.977,3.277,6.977,8.185c0,5.621-3.803,9.256-9.82,9.256
				c-2.246,0-4.406-0.396-6.036-0.646v-0.109c1.098-0.506,0.998-1.695,0.998-2.879V54.874c0-1.656,0.199-3.977-1.23-4.877v-0.109
				H124.349z"/>
			<path d="M145.107,63.606c0.398-2.254,2.064-3.684,4.291-3.684c2.396,0,3.928,1.18,4.295,3.684H145.107z M157.185,65.694
				c0.135-4.627-2.961-8.121-7.488-8.121c-4.955,0-8.314,3.6-8.314,8.592c0,5.027,3.891,8.857,9.547,8.857
				c1.564,0,3.162-0.25,4.592-0.891l1.664-3.375h-0.098c-1.533,1.301-3.463,1.92-5.459,1.92c-3.76,0-6.586-2.57-6.654-6.982H157.185
				z"/>
			<path d="M172.07,61.69h-0.1c-0.967-1.191-2.564-1.768-4.063-1.768c-3.227,0-5.555,2.449-5.555,5.871
				c0,4.144,3.229,6.883,6.92,6.883c1.697,0,3.561-0.721,4.859-1.768h0.102l-1.732,3.402c-1.398,0.57-2.928,0.711-4.395,0.711
				c-5.123,0-9.129-3.607-9.129-8.291c0-6.193,4.473-9.158,9.496-9.158c1.199,0,2.43,0.144,3.596,0.43V61.69z"/>
			<path class="st1" d="M117.556,54.602c0-1.674,0-3.603,0-3.603c-2.182,0.98-4.206,2.809-5.558,4.588v1.402
				C115.233,54.808,117.556,54.704,117.556,54.602z"/>
			<path d="M72.966,72.546c-5.025,0-8.521-5.67-8.521-10.486c0-0.049,0-0.496,0.002-0.541c0.061-4.666,3.08-9.043,8.353-9.043
				c5.546,0,8.407,5.25,8.453,10.217c0,0.043,0,0.479,0,0.52C81.252,68.511,77.958,72.546,72.966,72.546z M90.188,78.056
				c-3.709,0.607-7.277-0.563-11.066-4.896c3.661-1.84,5.926-6.416,5.926-10.668c0-0.045-0.002-0.484-0.002-0.529
				c-0.065-7.275-5.531-12.08-12.049-12.08c-6.528,0-12.297,5.002-12.347,12.336c0,0.031,0,0.457,0,0.488
				c0,7.137,5.293,12.432,11.78,12.432c0.934,0,1.832-0.145,2.731-0.359c4.25,3.984,8.041,5.676,11.311,5.281
				c1.554-0.186,3.196-0.801,4.181-2.084L90.188,78.056z"/>
		</g>
	</g>
	<g>
		<g>
			<path d="M21.014,20.085h7.561l-0.408,1.887h-2.492l-1.675,7.885h-2.633l1.676-7.885h-2.422L21.014,20.085z"/>
			<path d="M34.446,22.577l-0.563,2.112c-0.469-0.131-0.836-0.197-1.098-0.197c-0.61,0-1.08,0.23-1.408,0.69
				c-0.235,0.329-0.427,0.845-0.578,1.548l-0.676,3.126h-2.534l1.479-7.265h2.295l-0.267,1.323c0.694-0.995,1.492-1.492,2.393-1.492
				C33.77,22.422,34.089,22.474,34.446,22.577z"/>
			<path d="M35.67,22.605h2.464l-1.577,7.251h-2.464L35.67,22.605z M36.177,20.085h2.479l-0.253,1.295h-2.464L36.177,20.085z"/>
			<path d="M40.613,20.085h2.506l-0.76,3.45c0.676-0.751,1.479-1.126,2.408-1.126c0.911,0,1.619,0.319,2.126,0.958
				c0.46,0.591,0.69,1.352,0.69,2.281c0,1.23-0.324,2.253-0.971,3.069c-0.714,0.892-1.667,1.338-2.858,1.338
				c-1.146,0-1.995-0.554-2.548-1.662l-0.352,1.464h-2.281L40.613,20.085z M44.992,25.745c0-0.413-0.108-0.758-0.324-1.035
				c-0.216-0.276-0.526-0.415-0.929-0.415c-0.554,0-1.018,0.263-1.394,0.789c-0.338,0.469-0.507,0.995-0.507,1.577
				c0,0.441,0.117,0.808,0.352,1.098c0.234,0.292,0.563,0.437,0.986,0.437c0.563,0,1.018-0.276,1.366-0.831
				C44.841,26.876,44.992,26.336,44.992,25.745z"/>
			<path d="M49.398,22.619h2.534c-0.169,0.723-0.342,1.45-0.521,2.183c-0.216,0.939-0.324,1.662-0.324,2.169
				c0,0.723,0.319,1.084,0.958,1.084c0.967,0,1.619-0.793,1.957-2.379l0.648-3.056h2.534l-1.549,7.237h-2.267l0.281-1.225
				c-0.826,0.939-1.746,1.408-2.759,1.408c-0.77,0-1.357-0.226-1.76-0.676c-0.404-0.451-0.605-1.066-0.605-1.845
				c0-0.666,0.104-1.492,0.31-2.478C49.023,24.234,49.21,23.427,49.398,22.619z"/>
			<path d="M65.154,29.856h-2.521c0.178-0.723,0.352-1.445,0.521-2.168c0.216-0.929,0.324-1.656,0.324-2.182
				c0-0.713-0.305-1.07-0.916-1.07c-0.995,0-1.661,0.789-1.999,2.366l-0.648,3.055h-2.534l1.549-7.308h2.267l-0.282,1.295
				c0.826-0.939,1.746-1.408,2.76-1.408c0.77,0,1.357,0.228,1.76,0.683c0.403,0.456,0.605,1.073,0.605,1.852
				c0,0.667-0.108,1.488-0.324,2.464C65.529,28.242,65.341,29.049,65.154,29.856z"/>
			<path d="M73.827,29.856h-2.098l0.141-1.098c-0.563,0.835-1.399,1.253-2.506,1.253c-0.695,0-1.263-0.183-1.704-0.549
				c-0.479-0.394-0.718-0.93-0.718-1.605c0-0.966,0.48-1.67,1.44-2.112c0.725-0.338,1.675-0.507,2.852-0.507
				c0.386,0,0.771,0.019,1.157,0.056v-0.239c0.047-0.751-0.418-1.126-1.394-1.126c-0.845,0-1.633,0.183-2.366,0.549l0.296-1.69
				c0.789-0.281,1.591-0.422,2.408-0.422c0.901,0,1.647,0.16,2.239,0.479c0.75,0.394,1.126,1.004,1.126,1.83
				c0,0.629-0.127,1.493-0.38,2.591C74.029,28.486,73.864,29.35,73.827,29.856z M72.081,26.548
				c-0.169-0.019-0.408-0.028-0.718-0.028c-1.371,0-2.056,0.375-2.056,1.127c0,0.253,0.089,0.453,0.268,0.598
				c0.178,0.146,0.399,0.218,0.662,0.218c0.497,0,0.919-0.202,1.267-0.605C71.813,27.51,72.006,27.073,72.081,26.548z"/>
			<path d="M77.544,20.099h2.506l-2.112,9.757h-2.506L77.544,20.099z"/>
			<path d="M91.215,29.856h-2.098l0.141-1.098c-0.563,0.835-1.398,1.253-2.506,1.253c-0.694,0-1.262-0.183-1.704-0.549
				c-0.479-0.394-0.718-0.93-0.718-1.605c0-0.966,0.479-1.67,1.44-2.112c0.725-0.338,1.675-0.507,2.851-0.507
				c0.386,0,0.772,0.019,1.158,0.056v-0.239c0.047-0.751-0.417-1.126-1.394-1.126c-0.845,0-1.633,0.183-2.365,0.549l0.296-1.69
				c0.788-0.281,1.591-0.422,2.407-0.422c0.901,0,1.647,0.16,2.239,0.479c0.751,0.394,1.126,1.004,1.126,1.83
				c0,0.629-0.126,1.493-0.38,2.591C91.417,28.486,91.253,29.35,91.215,29.856z M89.47,26.548c-0.169-0.019-0.408-0.028-0.718-0.028
				c-1.371,0-2.056,0.375-2.056,1.127c0,0.253,0.089,0.453,0.268,0.598c0.178,0.146,0.399,0.218,0.662,0.218
				c0.498,0,0.92-0.202,1.268-0.605C89.202,27.51,89.395,27.073,89.47,26.548z"/>
			<path d="M100.1,20.085h2.492l-2.056,9.771h-2.253l0.268-1.211c-0.704,0.948-1.586,1.422-2.647,1.422
				c-0.911,0-1.62-0.315-2.126-0.943c-0.469-0.582-0.704-1.342-0.704-2.281c0-1.229,0.328-2.257,0.985-3.083
				c0.704-0.892,1.657-1.337,2.858-1.337c1.089,0,1.882,0.474,2.379,1.422L100.1,20.085z M98.833,25.773
				c0-0.413-0.122-0.763-0.366-1.049c-0.244-0.286-0.573-0.429-0.986-0.429c-0.573,0-1.033,0.286-1.38,0.859
				c-0.291,0.479-0.437,1.023-0.437,1.633c0,0.394,0.113,0.727,0.338,1c0.226,0.272,0.53,0.408,0.916,0.408
				c0.572,0,1.046-0.268,1.422-0.802C98.668,26.914,98.833,26.374,98.833,25.773z"/>
			<path d="M113.955,29.856h-2.408c0.178-0.751,0.356-1.506,0.535-2.267c0.234-0.995,0.352-1.75,0.352-2.267
				c0-0.572-0.253-0.859-0.76-0.859c-0.526,0-0.92,0.277-1.183,0.83c-0.112,0.235-0.249,0.737-0.408,1.507l-0.647,3.055h-2.563
				c0.188-0.76,0.375-1.525,0.563-2.295c0.216-0.948,0.324-1.723,0.324-2.323c0-0.516-0.253-0.774-0.76-0.774
				c-0.723,0-1.211,0.596-1.464,1.788l-0.774,3.604h-2.562l1.549-7.308h2.169l-0.282,1.324c0.798-0.958,1.643-1.436,2.534-1.436
				c1.023,0,1.685,0.474,1.985,1.422c0.769-0.948,1.633-1.422,2.591-1.422c0.685,0,1.225,0.207,1.619,0.619
				c0.395,0.413,0.591,0.967,0.591,1.662c0,0.638-0.126,1.502-0.38,2.591C114.368,28.153,114.161,29.002,113.955,29.856z"/>
			<path d="M117.475,22.605h2.464l-1.577,7.251h-2.464L117.475,22.605z M117.981,20.085h2.478l-0.253,1.295h-2.464L117.981,20.085z"
				/>
			<path d="M128.006,29.856h-2.521c0.178-0.723,0.352-1.445,0.521-2.168c0.216-0.929,0.324-1.656,0.324-2.182
				c0-0.713-0.305-1.07-0.915-1.07c-0.995,0-1.662,0.789-1.999,2.366l-0.647,3.055h-2.535l1.549-7.308h2.267l-0.282,1.295
				c0.826-0.939,1.746-1.408,2.76-1.408c0.77,0,1.356,0.228,1.76,0.683c0.403,0.456,0.605,1.073,0.605,1.852
				c0,0.667-0.108,1.488-0.324,2.464C128.381,28.242,128.194,29.049,128.006,29.856z"/>
			<path d="M131.441,22.605h2.464l-1.577,7.251h-2.464L131.441,22.605z M131.949,20.085h2.478l-0.253,1.295h-2.464L131.949,20.085z"
				/>
			<path d="M141.044,22.845l-0.549,1.591c-0.817-0.272-1.455-0.408-1.915-0.408c-0.751,0-1.126,0.221-1.126,0.662
				c0,0.244,0.258,0.47,0.775,0.676c0.779,0.31,1.253,0.521,1.422,0.634c0.516,0.347,0.774,0.821,0.774,1.422
				c0,0.883-0.366,1.559-1.099,2.028c-0.619,0.404-1.394,0.606-2.323,0.606c-1.023,0-1.985-0.155-2.886-0.465l0.521-1.746
				c0.667,0.329,1.342,0.493,2.027,0.493c0.845,0,1.268-0.216,1.268-0.648c0-0.281-0.249-0.53-0.747-0.746
				c-0.77-0.329-1.229-0.549-1.38-0.662c-0.498-0.357-0.746-0.854-0.746-1.493c0-0.807,0.39-1.427,1.169-1.858
				c0.639-0.347,1.394-0.521,2.267-0.521C139.265,22.408,140.115,22.554,141.044,22.845z"/>
			<path d="M146.338,20.198l-0.521,2.421h1.788l-0.366,1.732h-1.788c-0.132,0.524-0.263,1.043-0.395,1.557
				c-0.16,0.646-0.239,1.174-0.239,1.585c0,0.496,0.263,0.744,0.789,0.744c0.216,0,0.493-0.042,0.831-0.127l-0.366,1.719
				c-0.601,0.102-1.065,0.154-1.394,0.154c-0.723,0-1.291-0.183-1.704-0.548c-0.441-0.384-0.662-0.932-0.662-1.643
				c0-0.468,0.079-1.044,0.239-1.727c0.131-0.571,0.268-1.143,0.408-1.714h-1.479l0.366-1.732h1.479l0.366-1.718L146.338,20.198z"/>
			<path d="M154.251,22.577l-0.563,2.112c-0.469-0.131-0.835-0.197-1.098-0.197c-0.61,0-1.08,0.23-1.408,0.69
				c-0.235,0.329-0.427,0.845-0.578,1.548l-0.676,3.126h-2.534l1.479-7.265h2.295l-0.268,1.323c0.694-0.995,1.493-1.492,2.394-1.492
				C153.575,22.422,153.894,22.474,154.251,22.577z"/>
			<path d="M160.713,29.856h-2.098l0.141-1.098c-0.563,0.835-1.398,1.253-2.506,1.253c-0.694,0-1.262-0.183-1.704-0.549
				c-0.479-0.394-0.718-0.93-0.718-1.605c0-0.966,0.479-1.67,1.44-2.112c0.725-0.338,1.675-0.507,2.851-0.507
				c0.386,0,0.772,0.019,1.158,0.056v-0.239c0.047-0.751-0.418-1.126-1.394-1.126c-0.845,0-1.633,0.183-2.365,0.549l0.295-1.69
				c0.789-0.281,1.591-0.422,2.408-0.422c0.901,0,1.648,0.16,2.239,0.479c0.751,0.394,1.127,1.004,1.127,1.83
				c0,0.629-0.127,1.493-0.38,2.591C160.916,28.486,160.751,29.35,160.713,29.856z M158.968,26.548
				c-0.169-0.019-0.409-0.028-0.718-0.028c-1.371,0-2.056,0.375-2.056,1.127c0,0.253,0.089,0.453,0.268,0.598
				c0.178,0.146,0.399,0.218,0.662,0.218c0.497,0,0.92-0.202,1.267-0.605C158.7,27.51,158.893,27.073,158.968,26.548z"/>
			<path d="M167.345,20.198l-0.521,2.421h1.788l-0.366,1.732h-1.788c-0.131,0.524-0.263,1.043-0.394,1.557
				c-0.16,0.646-0.239,1.174-0.239,1.585c0,0.496,0.263,0.744,0.788,0.744c0.216,0,0.493-0.042,0.831-0.127l-0.366,1.719
				c-0.601,0.102-1.066,0.154-1.394,0.154c-0.723,0-1.29-0.183-1.704-0.548c-0.441-0.384-0.662-0.932-0.662-1.643
				c0-0.468,0.08-1.044,0.239-1.727c0.131-0.571,0.268-1.143,0.408-1.714h-1.479l0.366-1.732h1.479l0.366-1.718L167.345,20.198z"/>
			<path d="M170.161,22.605h2.464l-1.577,7.251h-2.464L170.161,22.605z M170.668,20.085h2.478l-0.253,1.295h-2.464L170.668,20.085z"
				/>
			<path d="M180.102,20.31l-0.38,1.295c-0.253-0.112-0.507-0.169-0.76-0.169c-0.357,0-0.629,0.113-0.817,0.338
				c-0.15,0.169-0.272,0.451-0.366,0.845h1.83l-0.366,1.76h-1.844l-1.155,5.477h-2.506l1.169-5.477h-1.506l0.38-1.76h1.493
				c0.282-1.755,1.356-2.633,3.224-2.633C178.938,19.986,179.472,20.094,180.102,20.31z"/>
			<path d="M27.096,34.165h2.492l-2.056,9.771H25.28l0.268-1.211c-0.704,0.948-1.586,1.422-2.647,1.422
				c-0.911,0-1.62-0.314-2.126-0.943c-0.469-0.582-0.704-1.342-0.704-2.281c0-1.229,0.328-2.257,0.985-3.083
				c0.704-0.892,1.657-1.337,2.858-1.337c1.089,0,1.882,0.474,2.379,1.422L27.096,34.165z M25.829,39.853
				c0-0.413-0.122-0.762-0.366-1.049c-0.244-0.286-0.573-0.429-0.986-0.429c-0.573,0-1.033,0.286-1.38,0.859
				c-0.291,0.478-0.436,1.023-0.436,1.633c0,0.394,0.113,0.728,0.338,1c0.226,0.272,0.53,0.408,0.915,0.408
				c0.572,0,1.046-0.268,1.422-0.802C25.665,40.994,25.829,40.454,25.829,39.853z"/>
			<path d="M30.714,36.699h2.535c-0.169,0.723-0.343,1.45-0.521,2.183c-0.216,0.938-0.324,1.661-0.324,2.168
				c0,0.723,0.319,1.085,0.958,1.085c0.966,0,1.619-0.793,1.957-2.379l0.647-3.056h2.535l-1.549,7.237h-2.267l0.282-1.225
				c-0.826,0.939-1.746,1.408-2.76,1.408c-0.77,0-1.357-0.226-1.76-0.676c-0.403-0.451-0.605-1.065-0.605-1.845
				c0-0.667,0.103-1.493,0.31-2.478C30.339,38.314,30.527,37.507,30.714,36.699z"/>
			<path d="M45.357,34.179h2.506l-2.112,9.757h-2.506L45.357,34.179z"/>
			<path d="M52.806,36.502c1.126,0,2.023,0.281,2.689,0.845c0.713,0.61,1.07,1.464,1.07,2.563c0,1.323-0.46,2.37-1.379,3.14
				c-0.854,0.732-1.958,1.098-3.309,1.098c-1.098,0-1.98-0.272-2.647-0.816c-0.713-0.591-1.07-1.422-1.07-2.492
				c0-1.361,0.441-2.431,1.324-3.211C50.318,36.878,51.426,36.502,52.806,36.502z M54.017,39.797c0-0.46-0.108-0.836-0.324-1.127
				c-0.244-0.338-0.587-0.507-1.028-0.507c-0.601,0-1.089,0.301-1.464,0.901c-0.319,0.525-0.479,1.107-0.479,1.746
				c0,0.441,0.117,0.817,0.352,1.127c0.263,0.338,0.61,0.507,1.042,0.507c0.6,0,1.079-0.305,1.436-0.915
				C53.862,41.013,54.017,40.435,54.017,39.797z"/>
			<path d="M64.056,36.699h2.506l-1.535,7.237c-0.404,1.915-1.882,2.872-4.436,2.872c-0.929,0-1.877-0.169-2.844-0.507l0.465-1.873
				c0.638,0.413,1.394,0.62,2.267,0.62c1.521,0,2.398-0.859,2.633-2.577c-0.742,0.977-1.642,1.464-2.704,1.464
				c-0.901,0-1.605-0.31-2.112-0.929c-0.469-0.573-0.704-1.319-0.704-2.239c0-1.183,0.338-2.178,1.014-2.985
				c0.713-0.854,1.647-1.281,2.802-1.281c1.089,0,1.882,0.474,2.379,1.422L64.056,36.699z M63.323,39.853
				c0-0.413-0.122-0.762-0.366-1.049c-0.244-0.286-0.573-0.429-0.986-0.429c-0.573,0-1.033,0.286-1.38,0.859
				c-0.291,0.478-0.437,1.023-0.437,1.633c0,0.394,0.113,0.728,0.338,1c0.226,0.272,0.53,0.408,0.916,0.408
				c0.572,0,1.046-0.268,1.422-0.802C63.159,40.994,63.323,40.454,63.323,39.853z"/>
			<path d="M74.658,40.965h-5.195c0.094,1.042,0.713,1.563,1.858,1.563c0.807,0,1.628-0.183,2.464-0.549l-0.281,1.788
				c-0.873,0.272-1.765,0.408-2.675,0.408c-1.089,0-1.957-0.291-2.605-0.873c-0.685-0.61-1.028-1.45-1.028-2.52
				c0-1.314,0.432-2.37,1.296-3.168c0.826-0.77,1.901-1.155,3.224-1.155c0.995,0,1.762,0.272,2.302,0.816
				c0.54,0.545,0.81,1.314,0.81,2.31C74.827,39.999,74.771,40.458,74.658,40.965z M72.729,39.572
				c0.019-0.141,0.028-0.254,0.028-0.338c0-0.395-0.112-0.712-0.338-0.951c-0.225-0.239-0.535-0.359-0.929-0.359
				c-0.432,0-0.803,0.174-1.112,0.521c-0.272,0.291-0.469,0.667-0.591,1.127H72.729z"/>
			<path d="M87.104,43.937h-2.408c0.178-0.751,0.356-1.507,0.535-2.267c0.234-0.995,0.352-1.75,0.352-2.267
				c0-0.573-0.253-0.859-0.761-0.859c-0.525,0-0.92,0.277-1.183,0.831c-0.112,0.235-0.249,0.737-0.408,1.506l-0.647,3.056h-2.563
				c0.188-0.76,0.376-1.525,0.563-2.295c0.216-0.948,0.324-1.723,0.324-2.323c0-0.516-0.253-0.774-0.76-0.774
				c-0.723,0-1.211,0.596-1.464,1.788l-0.774,3.604h-2.563l1.549-7.308h2.168l-0.282,1.324c0.798-0.958,1.643-1.437,2.534-1.437
				c1.023,0,1.685,0.474,1.985,1.422c0.769-0.948,1.633-1.422,2.591-1.422c0.685,0,1.225,0.207,1.619,0.62
				c0.394,0.413,0.591,0.967,0.591,1.662c0,0.638-0.126,1.502-0.38,2.591C87.518,42.233,87.311,43.083,87.104,43.937z"/>
			<path d="M96.721,40.965h-5.196c0.094,1.042,0.713,1.563,1.858,1.563c0.808,0,1.628-0.183,2.464-0.549l-0.282,1.788
				c-0.873,0.272-1.765,0.408-2.675,0.408c-1.089,0-1.957-0.291-2.604-0.873c-0.686-0.61-1.028-1.45-1.028-2.52
				c0-1.314,0.432-2.37,1.295-3.168c0.826-0.77,1.901-1.155,3.225-1.155c0.995,0,1.762,0.272,2.302,0.816
				c0.54,0.545,0.81,1.314,0.81,2.31C96.89,39.999,96.833,40.458,96.721,40.965z M94.792,39.572
				c0.019-0.141,0.028-0.254,0.028-0.338c0-0.395-0.113-0.712-0.338-0.951c-0.226-0.239-0.535-0.359-0.93-0.359
				c-0.432,0-0.802,0.174-1.112,0.521c-0.272,0.291-0.469,0.667-0.591,1.127H94.792z"/>
			<path d="M105.239,43.937h-2.52c0.178-0.723,0.352-1.445,0.521-2.168c0.216-0.929,0.324-1.657,0.324-2.182
				c0-0.713-0.305-1.07-0.915-1.07c-0.995,0-1.661,0.789-2,2.365l-0.647,3.056h-2.534l1.549-7.308h2.267l-0.282,1.295
				c0.826-0.938,1.746-1.408,2.76-1.408c0.769,0,1.356,0.228,1.76,0.683c0.403,0.456,0.605,1.072,0.605,1.852
				c0,0.667-0.108,1.488-0.324,2.464C105.615,42.322,105.427,43.129,105.239,43.937z"/>
			<path d="M112.082,34.277l-0.521,2.422h1.788l-0.366,1.732h-1.788c-0.131,0.524-0.263,1.043-0.394,1.557
				c-0.16,0.646-0.239,1.174-0.239,1.585c0,0.496,0.263,0.744,0.788,0.744c0.216,0,0.493-0.042,0.831-0.127l-0.366,1.719
				c-0.601,0.103-1.065,0.154-1.394,0.154c-0.723,0-1.29-0.183-1.704-0.548c-0.441-0.383-0.662-0.931-0.662-1.643
				c0-0.468,0.08-1.044,0.239-1.728c0.131-0.571,0.268-1.142,0.408-1.713h-1.478l0.366-1.732h1.478l0.366-1.718L112.082,34.277z"/>
		</g>
	</g>
	<g>
		<g>
			<g>
				<rect x="182.097" y="43.93" class="st2" width="20.166" height="12.36"/>
			</g>
		</g>
		<path class="st3" d="M192.181,44.577c-0.146,0.271-0.477,0.66-1.031,1.356c-0.643,0.802-0.533,1.874-0.225,2.507
			c0.348,0.731,0.553,1.34,0.711,1.912c0.221,0.836,0.074,1.955,0.09,1.854h-0.561c0-1.365-0.424-2.648-1.453-3.217
			c-1.461-0.813-2.904,0.594-2.445,2.053c0.242,0.766,0.674,1.025,0.793,1.025c0,0-0.199-0.844,0.412-1.275
			c0.572-0.404,1.281-0.158,1.607,0.324c0.313,0.459,0.361,1.09,0.361,1.09h-1.051v0.775h2.113c0,0-0.059,1.098-1.213,0.988
			c0,0,0.143,0.869,1.213,0.416c0,0-0.059,0.906,0.678,1.359l0,0l0,0c0.734-0.453,0.68-1.359,0.68-1.359
			c1.07,0.453,1.215-0.416,1.215-0.416c-1.16,0.109-1.215-0.988-1.215-0.988h2.111v-0.775h-1.051c0,0,0.051-0.631,0.359-1.09
			c0.328-0.483,1.039-0.729,1.611-0.324c0.609,0.432,0.412,1.275,0.412,1.275c0.121,0,0.549-0.26,0.791-1.025
			c0.459-1.459-0.984-2.865-2.445-2.053c-1.027,0.568-1.453,1.852-1.453,3.217h-0.559c0.014,0.102-0.133-1.018,0.09-1.854
			c0.156-0.572,0.361-1.182,0.709-1.912c0.309-0.633,0.42-1.705-0.225-2.507C192.66,45.237,192.33,44.848,192.181,44.577z"/>
		<g>
			<g>
				<rect x="208.138" y="43.93" class="st2" width="20.172" height="12.36"/>
			</g>
		</g>
		<path class="st3" d="M218.222,44.577c-0.15,0.271-0.477,0.66-1.033,1.356c-0.646,0.802-0.531,1.874-0.225,2.507
			c0.35,0.731,0.549,1.34,0.709,1.912c0.223,0.836,0.076,1.955,0.094,1.854h-0.561c0-1.365-0.424-2.648-1.453-3.217
			c-1.463-0.813-2.906,0.594-2.447,2.053c0.242,0.766,0.672,1.025,0.795,1.025c0,0-0.201-0.844,0.41-1.275
			c0.57-0.404,1.279-0.158,1.607,0.324c0.313,0.459,0.361,1.09,0.361,1.09h-1.051v0.775h2.113c0,0-0.059,1.098-1.213,0.988
			c0,0,0.139,0.869,1.213,0.416c0,0-0.059,0.906,0.68,1.359l0,0l0,0c0.73-0.453,0.674-1.359,0.674-1.359
			c1.076,0.453,1.219-0.416,1.219-0.416c-1.162,0.109-1.219-0.988-1.219-0.988h2.117v-0.775h-1.055c0,0,0.053-0.631,0.361-1.09
			c0.33-0.483,1.041-0.729,1.615-0.324c0.604,0.432,0.41,1.275,0.41,1.275c0.119,0,0.547-0.26,0.787-1.025
			c0.457-1.459-0.988-2.865-2.447-2.053c-1.025,0.568-1.451,1.852-1.451,3.217h-0.557c0.016,0.102-0.133-1.018,0.09-1.854
			c0.156-0.572,0.361-1.182,0.709-1.912c0.305-0.633,0.418-1.705-0.225-2.507C218.701,45.237,218.367,44.848,218.222,44.577z"/>
	</g>
	<g>
		<g>
			<g>
				<rect x="182.097" y="62.175" class="st2" width="20.166" height="12.357"/>
			</g>
		</g>
		<path class="st3" d="M192.181,62.823c-0.146,0.269-0.477,0.66-1.031,1.355c-0.643,0.803-0.533,1.871-0.225,2.508
			c0.348,0.727,0.553,1.336,0.711,1.912c0.221,0.834,0.074,1.951,0.09,1.85h-0.561c0-1.361-0.424-2.648-1.453-3.217
			c-1.461-0.812-2.904,0.598-2.445,2.057c0.242,0.762,0.674,1.023,0.793,1.023c0,0-0.199-0.844,0.412-1.277
			c0.572-0.4,1.281-0.158,1.607,0.324c0.313,0.461,0.361,1.09,0.361,1.09h-1.051v0.779l2.113-0.002c0,0-0.059,1.096-1.213,0.99
			c0,0,0.143,0.865,1.213,0.412c0,0-0.059,0.906,0.678,1.359l0,0l0,0c0.734-0.453,0.68-1.359,0.68-1.359
			c1.07,0.453,1.215-0.412,1.215-0.412c-1.16,0.105-1.215-0.99-1.215-0.99l2.111,0.002v-0.779h-1.051c0,0,0.051-0.629,0.359-1.09
			c0.328-0.482,1.039-0.725,1.611-0.324c0.609,0.434,0.412,1.277,0.412,1.277c0.121,0,0.549-0.262,0.791-1.023
			c0.459-1.459-0.984-2.869-2.445-2.057c-1.027,0.568-1.453,1.856-1.453,3.217h-0.559c0.014,0.102-0.133-1.016,0.09-1.85
			c0.156-0.576,0.361-1.186,0.709-1.912c0.309-0.637,0.42-1.705-0.225-2.508C192.66,63.483,192.33,63.093,192.181,62.823z"/>
		<g>
			<g>
				<rect x="208.138" y="62.175" class="st2" width="20.172" height="12.357"/>
			</g>
		</g>
		<path class="st3" d="M218.222,62.823c-0.15,0.269-0.477,0.66-1.033,1.355c-0.646,0.803-0.531,1.871-0.225,2.508
			c0.35,0.727,0.549,1.336,0.709,1.912c0.223,0.834,0.076,1.951,0.094,1.85h-0.561c0-1.361-0.424-2.648-1.453-3.217
			c-1.463-0.812-2.906,0.598-2.447,2.057c0.242,0.762,0.672,1.023,0.795,1.023c0,0-0.201-0.844,0.41-1.277
			c0.57-0.4,1.279-0.158,1.607,0.324c0.313,0.461,0.361,1.09,0.361,1.09h-1.051v0.779l2.113-0.002c0,0-0.059,1.096-1.213,0.99
			c0,0,0.139,0.865,1.213,0.412c0,0-0.059,0.906,0.68,1.359l0,0l0,0c0.73-0.453,0.674-1.359,0.674-1.359
			c1.076,0.453,1.219-0.412,1.219-0.412c-1.162,0.105-1.219-0.99-1.219-0.99l2.117,0.002v-0.779h-1.055c0,0,0.053-0.629,0.361-1.09
			c0.33-0.482,1.041-0.725,1.615-0.324c0.604,0.434,0.41,1.277,0.41,1.277c0.119,0,0.547-0.262,0.787-1.023
			c0.457-1.459-0.988-2.869-2.447-2.057c-1.025,0.568-1.451,1.856-1.451,3.217h-0.557c0.016,0.102-0.133-1.016,0.09-1.85
			c0.156-0.576,0.361-1.186,0.709-1.912c0.305-0.637,0.418-1.705-0.225-2.508C218.701,63.483,218.367,63.093,218.222,62.823z"/>
	</g>
</g>
</svg>
